<?xml version="1.0" standalone="no"?>
<!DOCTYPE svg PUBLIC "-//W3C//DTD SVG 20010904//EN"
 "http://www.w3.org/TR/2001/REC-SVG-20010904/DTD/svg10.dtd">
<svg version="1.0" xmlns="http://www.w3.org/2000/svg"
 width="984.000000pt" height="1200.000000pt" viewBox="0 0 984.000000 1200.000000"
 preserveAspectRatio="xMidYMid meet">
<metadata>
Created by potrace 1.10, written by Peter Selinger 2001-2011
</metadata>
<g transform="translate(0.000000,1200.000000) scale(0.100000,-0.100000)"
fill="#000000" stroke="none">
<path d="M4555 11770 c-796 -68 -1547 -383 -2189 -917 -485 -405 -966 -987
-1301 -1578 -386 -679 -644 -1466 -750 -2290 -65 -511 -74 -1271 -19 -1790 81
-777 284 -1500 604 -2150 341 -696 845 -1359 1380 -1820 662 -569 1341 -875
2170 -977 211 -26 675 -32 850 -10 228 28 331 45 477 77 607 134 1131 392
1668 823 148 119 547 515 682 677 568 683 967 1443 1197 2280 165 601 233
1099 243 1791 12 818 -75 1475 -287 2180 -280 926 -802 1799 -1485 2479 -381
380 -739 640 -1170 850 -386 188 -745 295 -1210 360 -129 19 -702 28 -860 15z
m620 -150 c885 -55 1656 -394 2377 -1046 450 -405 909 -1025 1216 -1639 293
-586 475 -1174 576 -1860 76 -520 96 -1182 51 -1700 -50 -585 -178 -1196 -345
-1649 -249 -678 -597 -1285 -1044 -1821 -144 -173 -507 -532 -666 -658 -303
-242 -627 -440 -936 -572 -466 -200 -968 -300 -1494 -299 -591 0 -1120 119
-1627 364 -430 208 -763 449 -1139 824 -465 464 -816 955 -1109 1551 -338 687
-534 1425 -605 2280 -18 214 -24 777 -11 1015 65 1175 356 2129 929 3040 221
352 549 759 834 1036 189 184 417 370 618 504 716 477 1498 685 2375 630z"/>
<path d="M4605 11424 c-155 -11 -437 -59 -636 -109 -668 -169 -1322 -572
-1852 -1142 -582 -624 -992 -1309 -1252 -2088 -148 -443 -235 -862 -292 -1400
-26 -247 -26 -1110 0 -1365 119 -1172 473 -2113 1127 -2995 292 -394 691 -795
1052 -1058 634 -462 1362 -697 2158 -697 1141 0 2090 455 2943 1410 481 539
905 1284 1132 1990 327 1020 392 2280 174 3385 -223 1126 -756 2131 -1555
2929 -516 516 -1106 864 -1749 1031 -323 84 -505 106 -885 110 -168 1 -332 1
-365 -1z m820 -103 c640 -100 1154 -313 1665 -690 481 -355 1003 -956 1340
-1541 98 -171 246 -473 323 -660 415 -1004 554 -2234 386 -3420 -55 -391 -166
-849 -285 -1177 -212 -586 -521 -1140 -901 -1615 -244 -305 -587 -641 -865
-846 -416 -308 -846 -511 -1332 -627 -286 -69 -520 -95 -846 -95 -581 0 -1078
114 -1585 365 -390 192 -675 398 -1024 740 -695 680 -1192 1534 -1455 2500
-189 691 -258 1452 -205 2260 26 394 105 883 199 1220 48 172 156 495 222 660
115 290 318 679 492 943 402 610 929 1148 1426 1460 454 284 920 453 1450 526
166 23 192 24 545 20 261 -2 344 -6 450 -23z"/>
<path d="M4767 11043 c-13 -13 -7 -81 7 -85 19 -4 -50 -198 -70 -198 -10 0
-14 -13 -14 -45 l0 -45 75 0 75 0 0 40 c0 29 -4 40 -15 40 -16 0 -19 18 -6 38
5 9 25 12 57 10 42 -3 49 -6 52 -25 2 -16 -2 -23 -12 -23 -12 0 -16 -10 -16
-40 l0 -40 100 0 100 0 0 44 c0 33 -4 45 -16 48 -9 2 -29 38 -50 91 -39 101
-40 107 -19 107 16 0 18 12 9 59 l-6 31 -123 0 c-67 0 -125 -3 -128 -7z"/>
<path d="M4503 11027 c-60 -9 -63 -11 -63 -38 0 -38 9 -59 27 -59 9 0 12 -6 9
-17 -3 -10 -10 -49 -17 -86 l-11 -69 -39 69 c-39 70 -46 93 -29 93 12 0 13 50
1 69 -7 11 -23 11 -97 1 -49 -7 -92 -14 -95 -16 -12 -7 4 -77 20 -81 9 -2 53
-64 99 -137 l82 -133 53 9 c28 5 55 13 58 16 4 4 19 66 34 137 34 164 34 165
50 165 7 0 12 8 10 18 -12 59 -16 72 -23 71 -4 -1 -35 -6 -69 -12z"/>
<path d="M5315 11006 c-67 -31 -115 -110 -115 -189 0 -107 90 -187 212 -187
33 0 72 7 87 15 29 15 81 70 81 86 0 5 -19 18 -42 30 -40 21 -42 21 -54 3 -39
-58 -70 -68 -104 -34 -39 39 -17 171 32 189 30 11 67 -6 74 -35 5 -20 41 -33
91 -34 18 0 29 120 12 131 -20 12 -69 11 -69 -2 0 -6 -16 -1 -35 11 -44 27
-129 35 -170 16z"/>
<path d="M4670 10424 c-280 -25 -586 -95 -815 -186 -357 -142 -719 -377 -1005
-651 -905 -870 -1395 -2021 -1437 -3376 l-6 -213 34 7 c19 4 37 10 40 14 3 3
11 119 17 256 7 138 19 311 27 385 80 704 282 1331 606 1885 288 492 692 957
1079 1242 545 400 1138 582 1820 559 413 -15 766 -103 1135 -286 289 -142 533
-316 784 -556 577 -553 1024 -1330 1221 -2124 97 -390 135 -659 167 -1180 l8
-125 29 2 c16 1 34 7 40 13 19 19 -20 548 -59 800 -141 894 -481 1661 -1033
2330 -122 147 -407 432 -542 541 -298 239 -662 439 -985 538 -292 90 -498 121
-830 125 -137 2 -270 2 -295 0z"/>
<path d="M4860 10011 c-5 -11 -10 -31 -10 -45 0 -28 -10 -31 -132 -42 -43 -3
-78 -9 -78 -13 0 -3 35 -46 76 -96 91 -109 131 -172 116 -187 -14 -14 -54 9
-158 88 -109 83 -119 81 -111 -21 l5 -75 -34 -15 c-26 -11 -34 -20 -34 -40 0
-22 3 -24 19 -15 25 13 41 13 41 0 0 -5 -6 -10 -14 -10 -25 0 -28 -19 -6 -37
14 -12 20 -30 20 -59 0 -23 3 -49 6 -58 9 -25 51 -19 97 13 63 43 150 128 143
139 -3 5 0 15 8 21 10 8 17 6 30 -8 16 -18 16 -22 -17 -87 -19 -38 -61 -105
-92 -149 -32 -44 -68 -96 -80 -115 -31 -50 -65 -151 -65 -192 0 -21 -7 -41
-16 -49 -14 -11 -19 -10 -35 11 -36 47 -40 50 -64 50 -14 0 -30 -9 -37 -20
-17 -26 -25 -25 -32 3 -6 24 -43 47 -76 47 -12 0 -33 -18 -51 -42 -30 -41 -32
-38 -13 20 3 10 -4 29 -16 45 -29 37 -82 38 -106 2 -14 -22 -42 -27 -29 -5 9
15 -24 57 -54 70 -19 7 -40 8 -62 3 -29 -8 -34 -14 -37 -42 -2 -18 4 -43 12
-56 15 -23 15 -24 -14 -23 -26 1 -28 4 -23 29 8 42 -4 74 -32 87 -60 28 -96 5
-104 -64 -4 -32 -11 -50 -21 -52 -12 -2 -15 9 -16 49 -1 58 -11 69 -69 69 -50
0 -59 -6 -76 -52 -12 -35 -11 -39 9 -61 23 -24 20 -37 -8 -37 -9 0 -24 16 -33
35 -15 32 -20 35 -60 35 -32 0 -49 -6 -63 -21 -18 -20 -18 -22 0 -70 13 -39
15 -53 5 -65 -18 -22 -28 -17 -46 22 -16 33 -20 35 -53 29 -38 -7 -80 -40 -80
-62 0 -20 30 -63 45 -63 27 0 37 -27 21 -57 -14 -26 -15 -26 -16 -6 0 32 -33
47 -75 33 -41 -14 -65 -47 -55 -76 8 -19 64 -54 89 -54 6 0 11 -9 11 -21 0
-22 1 -22 -67 -3 -30 8 -55 -32 -51 -83 3 -32 8 -40 36 -54 l34 -15 -26 -17
c-34 -23 -34 -41 1 -34 40 8 53 -2 53 -39 0 -30 -3 -34 -25 -34 -16 0 -25 -6
-25 -15 0 -19 21 -19 46 0 25 19 34 19 34 0 0 -8 6 -15 13 -16 6 -1 -6 -7 -28
-13 -26 -9 -40 -18 -39 -29 0 -10 1 -27 2 -40 1 -12 23 -58 48 -102 53 -92
104 -210 104 -242 0 -11 21 -48 46 -82 26 -34 58 -95 75 -142 16 -44 36 -94
44 -109 9 -17 11 -31 6 -35 -6 -3 -13 -25 -16 -50 -6 -36 -3 -49 14 -71 12
-15 21 -35 21 -45 0 -23 16 -24 61 -5 38 15 356 28 365 15 2 -5 -9 -15 -27
-24 -26 -14 -38 -15 -79 -4 -38 10 -55 10 -75 1 -19 -9 -32 -9 -46 -1 -24 12
-100 -2 -161 -29 l-37 -17 1 -136 1 -136 -36 -54 c-48 -72 -57 -100 -57 -169
0 -52 3 -61 30 -83 47 -40 141 -51 430 -51 140 0 289 2 330 4 41 3 242 1 445
-3 204 -4 577 -9 830 -10 407 -2 471 0 554 16 161 31 191 53 210 158 15 86
-13 133 -101 171 -30 13 -48 27 -51 41 -8 38 2 248 14 286 6 20 23 58 36 84
18 36 22 56 17 83 -5 27 3 59 41 154 44 113 49 122 87 141 62 32 87 108 47
145 -15 14 -19 27 -16 49 11 63 41 153 79 240 23 50 41 100 40 112 0 14 7 23
21 25 11 2 29 15 40 30 17 23 18 32 9 69 -8 33 -8 48 3 70 14 27 15 95 1 118
-18 29 -106 -3 -106 -39 0 -5 -4 -10 -10 -10 -5 0 -10 18 -10 41 0 40 1 40 29
34 80 -17 136 76 75 124 -15 12 -32 21 -38 21 -26 1 -38 17 -27 38 8 14 7 29
-1 54 -14 42 -25 49 -68 46 -31 -3 -35 0 -38 22 -8 57 -64 78 -103 39 -16 -16
-20 -29 -16 -55 3 -19 4 -34 1 -34 -15 0 -82 42 -102 63 -32 34 -27 71 11 75
16 2 40 -4 54 -13 32 -21 40 -13 20 19 -24 36 -52 41 -93 17 -37 -22 -54 -20
-54 5 0 51 -113 77 -144 32 l-15 -21 -19 23 c-16 20 -24 22 -64 16 -38 -6 -48
-12 -58 -36 -14 -34 -16 -35 -36 -15 -9 9 -34 15 -61 15 -41 0 -46 -3 -56 -30
-13 -35 -19 -36 -52 -14 -42 28 -105 2 -105 -42 0 -24 -14 -32 -25 -14 -3 6
-22 10 -41 10 -43 0 -89 -40 -81 -71 4 -16 2 -19 -11 -14 -39 17 -50 15 -80
-10 -37 -31 -39 -42 -12 -95 11 -22 20 -42 20 -45 0 -3 -9 -5 -20 -5 -15 0
-20 7 -20 25 0 33 -20 75 -36 75 -11 0 -10 8 1 41 19 52 19 150 1 192 -14 35
-65 102 -119 157 -19 19 -46 51 -60 70 -33 45 -90 160 -84 166 6 7 150 -119
194 -169 18 -21 36 -37 41 -37 15 0 23 61 16 122 l-7 58 30 0 c33 0 63 26 63
56 0 29 -12 41 -49 49 l-33 7 4 85 c2 46 1 86 -4 89 -4 3 -40 -22 -79 -56 -81
-70 -153 -110 -170 -93 -12 12 30 71 144 196 44 48 77 91 73 95 -4 4 -60 9
-123 10 l-115 4 5 34 c5 27 2 36 -13 44 -30 16 -68 12 -80 -9z m195 -141 c3
-5 -28 -55 -70 -110 -43 -57 -70 -100 -62 -100 8 0 42 35 75 78 33 43 68 85
78 93 9 8 -18 -31 -61 -86 -53 -69 -84 -100 -98 -100 -16 0 -35 25 -78 100
-32 55 -58 105 -58 112 -1 13 44 18 181 21 48 1 90 -2 93 -8z m-350 -232 c41
-23 76 -47 79 -54 5 -14 -128 -134 -148 -134 -9 0 -16 21 -20 62 -6 50 -10 59
-18 44 -5 -10 -7 -37 -4 -59 3 -23 2 -49 -4 -57 -7 -10 -9 16 -9 85 0 55 3 94
6 87 8 -20 23 -3 23 27 0 24 7 41 17 41 1 0 37 -19 78 -42z m458 20 c5 -14 -3
-210 -9 -217 -2 -2 -33 21 -71 50 -40 32 -75 53 -86 51 -11 -2 -17 1 -13 7 4
5 -2 14 -11 20 -17 10 -17 10 0 11 18 0 55 19 132 65 46 28 52 30 58 13z
m-227 -193 c10 -19 22 -35 26 -35 4 0 10 -22 14 -50 5 -40 10 -50 25 -50 23 0
24 12 4 50 -9 17 -13 30 -11 30 7 0 59 -90 55 -94 -2 -1 -28 0 -56 2 -37 3
-53 8 -53 18 0 17 -80 20 -97 3 -6 -6 -13 -7 -16 -2 -7 13 64 163 78 163 6 0
20 -16 31 -35z m-6 -290 c-3 -63 -10 -119 -16 -125 -6 -6 -23 -8 -38 -4 l-26
6 -1 107 c0 68 -3 99 -9 86 -5 -11 -9 -62 -9 -112 l-1 -93 -77 0 c-86 0 -123
-7 -123 -22 0 -7 63 -8 185 -3 102 4 185 4 185 1 0 -3 -10 -16 -21 -27 -20
-20 -23 -20 -31 -5 -12 21 -23 20 -47 -6 -18 -19 -21 -19 -27 -5 -8 21 -23 22
-38 2 -6 -8 -33 -17 -61 -20 -101 -11 -129 -17 -114 -26 8 -4 62 -3 120 3 57
5 173 7 257 4 l152 -6 0 28 c0 25 -4 28 -35 29 -42 1 -45 -9 -7 -24 25 -10 26
-11 4 -12 -13 -1 -33 10 -46 24 -26 28 -46 32 -46 10 0 -8 -7 -15 -15 -15 -8
0 -15 6 -15 14 0 8 -6 17 -12 20 -7 2 34 4 92 3 99 -2 105 -3 102 -22 -7 -35
-34 -90 -39 -77 -3 7 -22 12 -46 12 -31 0 -38 -3 -27 -10 11 -7 7 -10 -17 -10
-33 0 -44 -14 -20 -23 6 -3 -7 -6 -30 -6 -24 -1 -43 -5 -43 -11 0 -15 143 -13
160 3 8 6 7 2 -3 -9 -15 -18 -26 -21 -62 -16 -58 6 -124 -6 -104 -19 9 -7 -15
-8 -71 -4 -52 4 -91 2 -100 -4 -11 -8 21 -11 109 -11 68 0 122 -3 118 -6 -3
-4 -61 -6 -128 -5 -135 2 -166 11 -211 64 -24 28 -28 29 -28 12 -1 -11 -11 4
-24 35 -25 57 -25 70 0 70 21 0 17 21 -6 27 -45 12 -6 142 62 211 44 45 130
80 198 81 l35 1 -5 -115z m149 92 c42 -17 62 -34 87 -70 32 -46 53 -124 39
-146 -4 -7 -47 -11 -109 -11 -131 0 -131 0 -127 126 2 63 -1 100 -9 109 -20
24 55 18 119 -8z m1075 -251 c6 -30 12 -36 66 -55 33 -12 73 -34 90 -48 42
-35 106 -130 119 -178 21 -75 8 -301 -19 -328 -15 -16 -22 54 -10 104 20 83 8
183 -30 257 -19 34 -39 62 -46 62 -8 0 -11 6 -8 13 7 19 -16 42 -76 75 -71 38
-177 54 -307 45 -112 -7 -221 -41 -458 -141 -77 -32 -178 -71 -225 -86 -47
-15 -98 -32 -115 -37 -62 -22 -102 -29 -167 -29 -89 0 -97 17 -11 23 38 3 109
16 158 29 93 26 270 92 290 108 16 14 168 77 250 105 101 34 240 54 368 54
110 0 143 6 114 22 -9 5 -13 17 -10 29 7 27 20 17 27 -24z m-2005 -52 c65 -16
144 -48 246 -99 168 -83 318 -141 414 -158 74 -14 98 -38 29 -30 -24 2 -50 7
-58 10 -8 4 -28 8 -44 10 -51 8 -198 62 -237 88 -21 14 -43 25 -48 25 -5 0
-76 31 -158 69 l-149 68 -137 13 c-153 15 -212 11 -309 -20 -46 -14 -66 -25
-62 -34 3 -8 -13 -22 -42 -37 -27 -13 -57 -33 -68 -44 -12 -12 -18 -16 -13
-11 4 6 7 17 7 26 -1 24 -79 -68 -111 -131 -38 -77 -53 -167 -42 -263 9 -75 3
-100 -19 -78 -6 6 -10 72 -11 153 -1 156 9 200 58 265 25 32 143 126 207 164
86 50 375 58 547 14z m-44 -73 c97 -25 197 -63 330 -126 55 -26 145 -62 200
-81 111 -38 104 -41 -41 -19 -54 8 -127 15 -161 15 -34 0 -106 9 -160 19 -99
20 -238 25 -468 18 -112 -4 -194 -25 -300 -77 -23 -11 -43 -16 -48 -11 -14 14
2 68 29 101 32 37 148 130 163 130 7 0 31 10 54 21 23 12 64 25 92 30 77 12
221 3 310 -20z m2070 -11 c112 -43 195 -155 195 -262 l0 -39 -52 40 c-101 76
-210 101 -434 101 -103 0 -135 -4 -182 -21 -42 -16 -92 -23 -192 -29 -99 -5
-144 -11 -169 -24 -28 -15 -47 -17 -105 -11 -102 9 -109 20 -24 35 110 19 239
65 378 135 69 35 145 66 170 69 25 4 81 13 125 21 109 19 215 13 290 -15z
m-1015 -474 c-4 -19 -39 -90 -78 -158 -91 -160 -106 -192 -98 -214 6 -15 9
-15 34 8 56 52 302 206 320 200 22 -7 8 -450 -15 -473 -8 -8 -139 70 -242 144
-55 40 -63 60 -14 34 30 -16 86 -44 174 -89 31 -15 59 -28 62 -28 9 0 20 341
10 351 -10 10 -95 -28 -158 -71 -22 -15 -64 -39 -93 -54 -29 -15 -50 -31 -47
-35 3 -5 64 22 136 60 71 38 134 69 140 69 13 0 12 -263 -2 -277 -8 -8 -41 5
-123 47 -61 32 -122 61 -135 65 -13 4 -37 20 -52 36 -24 25 -43 32 -76 28 -7
0 -87 184 -110 258 -9 29 -14 56 -10 59 4 4 29 9 57 12 28 2 48 8 43 13 -4 4
-39 5 -76 2 -57 -5 -68 -9 -64 -22 3 -9 28 -78 56 -154 28 -75 51 -150 50
-165 l-1 -27 -8 30 c-9 37 -56 154 -103 255 -19 41 -37 85 -41 97 l-7 23 203
3 c112 1 219 3 239 5 l37 2 -8 -34z m1273 -43 c42 -3 77 -10 77 -16 0 -6 -34
-7 -87 -3 -86 5 -87 5 -53 -10 19 -9 52 -19 73 -22 43 -5 45 -25 4 -30 -28 -3
-36 -17 -14 -25 9 -3 7 -13 -6 -43 -11 -21 -21 -61 -24 -89 -2 -27 -6 -51 -8
-53 -6 -7 -26 78 -33 142 -6 48 -11 61 -26 64 -16 3 -18 -2 -14 -45 3 -26 12
-75 21 -108 8 -33 18 -78 21 -100 l5 -40 -20 43 c-22 48 -69 240 -69 286 0 38
28 69 55 61 11 -3 55 -8 98 -12z m-2373 -57 c0 -25 -4 -56 -10 -70 -7 -18 -5
-35 6 -61 10 -26 12 -41 4 -55 -16 -30 -12 -41 14 -34 32 8 48 -32 20 -53 -17
-12 -17 -17 -1 -105 9 -51 14 -94 12 -97 -9 -9 -18 9 -22 45 -4 35 -33 104
-57 134 -7 8 -21 43 -31 77 l-18 62 28 65 c16 37 26 69 22 72 -8 8 13 64 24
64 5 0 9 -20 9 -44z m2187 -154 c40 -64 93 -170 93 -189 0 -35 -30 -4 -75 76
-27 50 -53 87 -57 85 -16 -10 -95 -340 -84 -351 2 -3 44 22 93 55 125 83 133
87 133 63 0 -14 -14 -26 -47 -40 -27 -12 -55 -25 -63 -31 -39 -25 -144 -79
-148 -76 -2 3 6 44 17 93 18 78 57 258 76 351 8 40 16 35 62 -36z m-1674 32
c18 -9 66 -40 107 -69 41 -29 91 -60 110 -70 53 -27 65 -51 28 -57 -12 -2 -23
-9 -26 -17 -3 -10 3 -12 27 -9 17 3 30 2 29 -2 -2 -4 -70 -52 -153 -108 -195
-132 -185 -139 -185 128 0 139 3 199 12 208 15 15 13 15 51 -4z m-892 -89 c4
-22 12 -53 18 -68 6 -16 11 -40 10 -55 0 -18 -10 0 -29 53 -28 78 -40 94 -20
25 6 -19 13 -66 15 -104 2 -38 9 -74 16 -80 9 -8 11 -7 7 4 -3 8 -8 26 -12 40
-11 41 36 -50 50 -98 l13 -42 -27 6 c-15 3 -54 15 -86 27 -38 13 -61 17 -63
10 -6 -18 -60 41 -68 75 -8 37 -22 42 -28 10 -4 -23 -4 -23 -14 2 -8 19 -7 27
3 33 8 4 14 15 14 22 0 8 4 15 10 15 5 0 19 19 31 43 12 23 33 61 48 85 24 39
29 42 66 40 38 -3 40 -5 46 -43z m657 -50 c22 -19 42 -32 45 -29 10 10 20 -44
14 -79 -3 -17 -10 -52 -17 -77 -6 -25 -9 -60 -6 -77 3 -24 1 -33 -9 -33 -37 0
-61 94 -30 120 9 8 15 29 14 54 l0 41 -21 -42 c-12 -23 -28 -45 -35 -47 -37
-15 -69 38 -37 60 37 26 44 35 44 59 0 22 -4 25 -40 25 -51 0 -66 -22 -75
-112 -7 -68 -18 -91 -29 -62 -6 15 -3 28 24 134 29 107 86 130 158 65z m1622
-2 c31 -8 35 -13 38 -45 4 -47 -10 -74 -44 -82 -32 -8 -64 17 -64 51 0 24 15
32 23 11 8 -23 20 1 13 27 -15 58 -59 11 -89 -94 -13 -46 -26 -78 -29 -70 -7
20 17 114 42 173 24 52 19 51 110 29z m-284 -11 c12 -9 26 -32 33 -51 12 -38
15 -151 4 -151 -22 1 -31 21 -37 82 -8 73 -34 118 -67 118 -26 0 -34 -24 -19
-59 23 -57 -20 -98 -53 -50 -21 30 -3 95 32 114 35 19 82 18 107 -3z m-1708
-4 c27 -10 40 -25 63 -70 30 -60 39 -123 17 -116 -7 3 -21 29 -30 59 -20 62
-67 108 -110 109 -40 0 -56 -34 -26 -54 12 -9 28 -16 34 -16 17 0 28 -51 13
-61 -30 -18 -78 28 -79 77 0 38 34 84 63 84 11 0 36 -6 55 -12z m1055 -242
c26 -59 45 -111 42 -115 -20 -18 -116 163 -100 189 5 8 -25 24 -32 16 -3 -2 9
-39 26 -81 60 -149 145 -245 218 -245 40 0 43 14 6 34 -38 20 -20 20 19 0 17
-9 58 -20 91 -24 33 -5 64 -15 69 -22 8 -10 11 -10 15 0 6 14 33 16 33 2 0
-21 118 -11 185 17 54 22 70 35 95 73 16 26 35 61 41 78 9 27 16 32 44 32 30
0 33 -3 39 -41 15 -94 60 -139 148 -149 57 -7 59 -7 18 -9 -86 -2 -117 14
-161 82 -22 33 -42 71 -45 84 -11 43 -27 25 -20 -23 8 -58 38 -108 84 -139
l37 -25 -381 0 c-209 0 -383 -3 -387 -6 -7 -7 -150 -7 -440 2 -115 4 -203 11
-195 15 18 11 -2 16 -82 22 -36 3 -73 8 -82 12 -10 4 -18 3 -18 -2 0 -5 34
-15 75 -22 41 -7 75 -16 75 -20 0 -4 -27 -5 -61 -3 -33 3 -140 -1 -237 -8
-188 -14 -453 -17 -470 -6 -6 4 -27 36 -46 72 -32 61 -33 64 -11 50 14 -9 26
-16 29 -16 2 0 -17 33 -43 73 -27 39 -53 83 -60 97 -13 28 -10 24 84 -99 29
-37 71 -78 100 -96 45 -28 55 -30 132 -28 65 2 93 8 131 27 64 32 75 48 76
106 1 35 5 50 15 50 13 0 13 -10 -2 -98 -4 -22 -3 -22 11 -8 15 15 34 131 23
141 -2 3 -24 5 -48 5 -24 0 -43 4 -43 9 0 15 128 25 153 13 21 -10 21 -11 -6
-11 -37 -1 -42 -19 -23 -85 13 -42 26 -64 62 -95 26 -23 54 -41 63 -41 10 0 1
14 -26 38 -23 20 -44 48 -48 62 -5 23 -5 24 6 5 23 -37 44 -53 104 -81 53 -25
74 -29 183 -32 115 -4 126 -3 175 22 29 14 76 50 105 81 52 55 69 92 88 193 4
17 10 32 15 32 22 0 -42 -209 -71 -235 -11 -10 -20 -27 -20 -38 0 -19 3 -18
30 8 33 31 58 91 84 200 17 68 18 70 49 70 30 0 33 -4 80 -109z m968 -373 c45
-4 58 -9 44 -14 -11 -4 6 -5 37 -2 31 3 68 3 83 -1 21 -5 25 -11 19 -29 -9
-31 -9 -31 -38 -12 -22 15 -34 16 -87 6 -38 -6 -68 -7 -78 -1 -11 5 -34 5 -59
-1 -35 -8 -49 -6 -80 10 l-37 20 80 2 c71 2 66 3 -50 10 -71 5 -143 10 -160
12 -54 7 261 7 326 0z m-1406 -39 c-14 -10 -29 -12 -50 -7 -45 12 -141 9 -158
-5 -11 -9 -24 -8 -60 4 -49 17 -88 16 -94 -2 -2 -7 17 -14 49 -18 29 -3 70 -9
91 -12 22 -4 50 -1 68 6 26 11 36 10 79 -10 l48 -23 32 23 c32 23 33 23 86 6
49 -15 56 -16 70 -2 21 21 117 22 134 1 15 -18 67 -19 99 -1 21 12 31 11 68
-1 40 -14 48 -14 86 1 56 21 79 20 110 -4 14 -11 29 -20 34 -20 5 0 26 9 48
20 48 24 88 25 124 4 26 -15 30 -15 67 2 25 12 57 18 89 16 28 -1 85 -2 127
-2 47 1 88 -5 105 -13 19 -9 39 -11 63 -6 25 5 44 3 68 -10 33 -17 36 -17 69
0 27 14 41 15 63 7 19 -6 27 -15 23 -24 -3 -9 2 -14 16 -14 31 0 26 -16 -8
-28 -41 -15 -64 -52 -56 -94 8 -44 24 -63 57 -71 20 -5 26 -12 21 -24 -4 -11
-8 -13 -11 -5 -6 18 -22 14 -22 -5 0 -15 -2 -16 -10 -3 -8 13 -11 12 -23 -5
-14 -18 -29 -19 -493 -17 -1176 5 -1909 15 -1916 26 -13 20 -8 36 11 36 10 0
24 7 31 15 10 12 10 15 -1 15 -7 0 4 15 24 34 45 41 48 76 11 111 -14 13 -40
25 -57 27 -47 4 -33 21 34 40 54 15 61 15 66 1 5 -13 26 -14 132 -12 69 2 134
8 143 13 12 7 28 6 51 -2 44 -16 57 -15 57 2 0 20 -13 26 -68 36 -29 5 54 8
223 9 242 0 268 -1 250 -15z m-401 -368 c-4 -11 30 -14 188 -19 160 -4 204 -9
257 -26 70 -23 120 -20 66 4 l-30 13 30 1 c23 1 27 4 15 11 -8 5 -91 10 -185
11 -93 1 -197 5 -230 9 -35 4 79 7 272 6 182 0 324 -4 315 -8 -9 -4 -45 -7
-79 -7 -97 -1 -76 -21 25 -22 48 -1 102 -1 120 0 20 2 32 -2 32 -10 0 -10 3
-10 12 -1 7 7 20 12 30 12 10 0 18 5 18 10 0 6 -26 10 -59 10 -33 0 -63 5 -66
10 -4 7 45 9 142 8 116 -1 132 -3 73 -7 -68 -5 -75 -8 -78 -28 -3 -19 1 -23
26 -23 16 0 31 3 35 6 3 3 47 6 97 6 49 0 93 4 96 9 7 12 201 11 209 -1 8 -13
118 -13 280 0 107 9 129 8 139 -3 14 -18 63 -30 70 -18 4 5 -6 14 -21 19 -24
9 -17 11 42 11 80 1 149 -18 131 -35 -7 -7 -35 -9 -69 -6 -31 2 -64 1 -74 -4
-12 -5 22 -12 97 -20 l115 -13 -107 5 -108 5 23 -25 c12 -13 36 -26 52 -29 17
-2 0 -5 -37 -6 -61 -1 -88 -13 -56 -23 6 -2 8 -10 4 -16 -5 -9 -11 -8 -22 3
-12 12 -20 13 -36 4 -27 -14 -138 -5 -198 16 -50 17 -62 13 -54 -21 4 -17 1
-26 -10 -30 -24 -9 -19 -24 9 -24 31 0 33 -16 3 -24 -15 -4 -33 2 -51 15 -15
11 -32 17 -38 13 -6 -3 -3 -11 8 -20 15 -11 -9 -14 -177 -16 -239 -3 -332 0
-343 11 -5 5 30 12 76 16 142 11 118 44 -43 60 -64 6 -66 5 -103 -28 -29 -26
-35 -37 -25 -43 19 -13 -75 -23 -140 -17 -29 3 -55 9 -57 13 -3 5 -23 6 -44 3
-22 -3 -97 0 -168 6 -91 8 -151 8 -203 1 -51 -7 -86 -7 -110 0 -23 7 -36 7
-38 0 -6 -17 -93 -11 -184 12 l-86 22 -28 -27 -27 -27 29 0 c20 0 25 -3 17
-11 -8 -8 -19 -6 -41 5 -18 9 -55 16 -87 16 -30 0 -64 5 -74 12 -15 9 -26 9
-45 0 -22 -10 -24 -9 -19 5 5 14 1 15 -33 8 -21 -4 -42 -12 -46 -18 -5 -8 -14
-7 -33 3 -23 12 -26 19 -20 47 4 21 2 33 -5 33 -7 0 -10 13 -8 33 2 25 10 35
38 49 19 9 42 24 51 32 23 23 136 35 354 38 105 1 148 4 98 5 -125 5 -120 23
7 23 80 0 98 -3 94 -14z"/>
<path d="M4100 7245 c-40 -10 -45 -14 -48 -42 -5 -47 18 -63 91 -62 90 1 111
9 115 43 5 37 -8 48 -66 61 -33 8 -60 8 -92 0z"/>
<path d="M4825 7253 c-49 -12 -70 -66 -45 -112 17 -33 83 -51 183 -51 106 0
156 18 171 62 13 38 -8 84 -46 97 -30 11 -224 13 -263 4z m232 -29 c20 -6 52
-59 41 -70 -9 -9 -68 -23 -63 -15 5 10 -77 21 -152 21 -29 0 -53 -4 -53 -10 0
-5 -7 -7 -15 -4 -21 8 -19 61 3 73 18 11 202 15 239 5z"/>
<path d="M6226 6526 c-96 -51 -177 -87 -204 -91 -87 -13 -119 -44 -57 -55 38
-7 48 -42 41 -153 -7 -101 -14 -119 -67 -165 -44 -38 -53 -69 -16 -57 12 4 35
9 50 12 l29 6 -6 -79 c-4 -44 -13 -176 -21 -294 -16 -225 -38 -426 -56 -508
-7 -37 -17 -52 -39 -66 -32 -18 -37 -30 -19 -41 33 -21 379 218 379 261 0 17
-1 17 -34 4 -24 -9 -26 -7 -26 18 0 41 51 655 55 670 5 14 55 17 55 3 0 -5 4
-21 10 -35 13 -36 40 -23 40 20 0 19 17 65 40 110 22 43 40 82 40 87 0 5 -27
6 -64 2 -101 -11 -106 -7 -106 78 0 94 9 147 26 147 19 0 76 -61 70 -75 -2 -7
1 -18 7 -24 8 -8 31 8 89 66 43 43 78 81 78 84 0 4 -25 31 -54 59 -30 29 -56
62 -58 73 -2 11 -7 22 -13 23 -5 2 -82 -34 -169 -80z m-189 -709 c-4 -100 -13
-250 -21 -332 -8 -83 -18 -189 -21 -236 -4 -47 -11 -92 -17 -100 -7 -10 -8 8
-4 56 11 120 25 323 36 500 5 94 13 198 16 233 12 120 17 61 11 -121z"/>
<path d="M4126 6209 c-49 -44 -123 -102 -165 -130 l-77 -51 19 -39 c41 -84 47
-468 7 -536 -24 -41 -15 -47 60 -44 93 4 254 -45 265 -80 9 -29 33 -23 51 14
9 17 45 61 79 97 80 84 95 107 95 148 0 46 -26 92 -51 92 -16 0 -19 -4 -14
-17 25 -62 27 -75 16 -100 -11 -23 -16 -25 -56 -20 -51 7 -164 44 -182 59 -10
8 15 40 100 130 61 65 131 140 154 166 l42 48 -39 60 c-21 32 -73 100 -114
149 -44 53 -76 99 -76 113 0 12 -6 22 -12 21 -7 0 -53 -36 -102 -80z m81 -282
c39 -52 63 -97 63 -118 0 -24 -91 -93 -102 -77 -10 16 -11 238 0 238 4 0 21
-20 39 -43z"/>
<path d="M4740 6234 c-25 -25 -78 -70 -117 -100 -40 -30 -73 -60 -73 -65 0 -6
13 -15 29 -20 25 -9 31 -18 40 -60 23 -104 7 -395 -26 -494 -9 -27 -14 -52
-12 -55 2 -3 29 -5 59 -5 73 -1 204 -53 208 -83 2 -11 10 -26 19 -34 13 -11
22 -6 61 37 61 68 146 175 171 216 37 60 19 149 -30 149 -23 0 -24 -8 -4 -34
23 -30 19 -91 -7 -120 l-23 -25 -69 24 c-38 13 -74 29 -80 35 -12 12 -14 425
-2 437 13 13 58 -18 71 -50 7 -18 17 -61 21 -95 3 -34 10 -62 14 -62 4 0 22
23 40 50 18 28 54 70 81 94 45 40 48 47 42 77 -3 19 -21 65 -40 102 -26 52
-33 76 -28 98 11 50 -19 35 -97 -47 -39 -41 -80 -80 -91 -86 -18 -9 -19 -6
-15 44 l3 53 -37 3 c-21 2 -39 9 -39 15 -1 7 -2 18 -3 26 -2 28 -22 21 -66
-25z"/>
<path d="M3559 6177 c-29 -34 -80 -90 -113 -125 l-61 -63 -5 73 -5 72 -42 9
c-30 6 -43 13 -43 25 0 9 -5 24 -10 32 -8 12 -18 5 -54 -36 -25 -28 -79 -77
-121 -109 -41 -32 -75 -61 -75 -66 0 -16 19 -19 44 -8 22 10 29 9 46 -6 23
-21 25 -32 40 -230 8 -103 8 -159 1 -177 -5 -15 -33 -52 -60 -82 -77 -85 -99
-139 -66 -166 16 -13 20 -7 27 35 5 31 79 34 109 4 20 -20 21 -28 17 -158 -4
-93 -10 -150 -22 -181 -9 -24 -14 -50 -11 -57 7 -20 79 20 205 112 58 42 118
84 133 92 39 20 29 39 -20 35 -40 -2 -41 -2 -47 38 -9 58 1 90 29 90 39 0 73
-18 87 -45 13 -24 15 -24 36 -9 12 8 22 21 22 28 0 8 20 42 44 77 101 149 146
269 146 394 0 77 -3 87 -45 171 -25 49 -61 118 -80 153 -28 50 -34 70 -29 96
11 58 -19 51 -77 -18z m-121 -268 c9 -17 43 -74 75 -128 69 -117 97 -187 97
-248 l0 -46 -62 7 c-35 3 -79 11 -99 16 -35 10 -37 13 -43 63 -10 95 -19 345
-12 356 12 19 26 12 44 -20z"/>
<path d="M8787 6224 c-3 -3 1 -21 10 -39 15 -31 14 -36 -7 -80 -40 -82 -117
-115 -317 -134 -57 -5 -107 -12 -113 -16 -17 -10 -11 -33 10 -40 25 -8 26 -47
5 -171 -41 -237 -97 -399 -182 -533 -37 -58 -34 -71 18 -71 28 0 152 -88 163
-115 3 -9 6 -25 6 -36 0 -10 5 -19 11 -19 20 0 267 168 284 193 22 34 36 88
29 110 -9 28 -28 14 -35 -24 -8 -47 -36 -99 -55 -99 -23 0 -66 25 -93 54 l-24
25 17 88 c23 117 65 282 77 305 7 13 19 18 37 16 26 -3 27 -6 33 -73 7 -81 14
-102 40 -116 31 -16 40 -1 19 34 -40 64 -19 142 69 262 63 85 65 112 6 75 -28
-18 -44 -21 -78 -16 -71 11 -74 16 -53 82 15 48 30 70 86 124 37 36 73 75 79
87 12 24 14 75 5 111 -6 20 -33 30 -47 16z"/>
<path d="M6834 6135 c-80 -50 -181 -102 -256 -133 -32 -13 -37 -32 -8 -32 37
0 38 -99 4 -300 -22 -127 -41 -186 -74 -224 -35 -39 -32 -44 50 -76 30 -12 74
-34 97 -48 36 -23 43 -32 43 -59 0 -20 5 -33 13 -33 6 0 46 30 87 66 41 36 89
73 107 81 31 16 32 15 57 -13 14 -16 32 -44 41 -61 14 -29 14 -36 1 -62 -8
-15 -12 -31 -9 -35 17 -16 44 -1 103 59 60 61 89 84 163 129 21 13 26 20 18
30 -6 7 -22 11 -35 9 -40 -8 -51 26 -50 152 1 90 8 135 36 247 20 75 33 141
29 146 -3 5 -55 31 -116 56 -149 64 -185 88 -185 126 0 18 -5 30 -13 30 -8 0
-54 -25 -103 -55z m81 -208 l40 -23 -1 -124 c0 -124 -18 -279 -36 -312 -12
-25 -28 -22 -76 13 -34 25 -42 37 -42 62 0 35 47 361 56 389 7 23 11 22 59 -5z"/>
<path d="M2496 6020 c-84 -103 -108 -140 -92 -140 3 0 16 4 30 10 42 16 53
-15 71 -195 8 -88 20 -187 25 -220 17 -105 17 -105 -39 -105 -64 0 -97 13
-105 42 -6 24 -43 430 -48 533 l-3 59 -40 9 c-22 4 -50 10 -63 13 -13 2 -27
16 -32 30 -6 14 -14 24 -20 22 -5 -2 -54 -57 -109 -123 -65 -78 -97 -123 -90
-130 6 -6 16 -5 29 3 26 16 45 15 59 -2 15 -18 60 -324 67 -456 l6 -105 -36
-34 c-59 -57 -45 -76 34 -45 73 30 230 1 230 -41 0 -33 33 -11 95 64 36 44 74
83 84 86 19 6 131 -35 162 -58 9 -7 18 -21 20 -32 3 -11 10 -20 16 -20 14 0
173 231 173 251 0 19 -20 17 -42 -3 -18 -16 -22 -16 -46 -2 -39 22 -48 48 -72
214 -27 186 -28 285 -5 343 10 24 15 45 13 48 -3 2 -34 12 -69 21 -75 18 -89
27 -82 52 3 11 -2 21 -10 24 -11 4 -45 -30 -111 -113z"/>
<path d="M7808 6032 c-18 -16 -85 -57 -148 -91 -137 -75 -147 -83 -173 -141
-23 -52 -27 -156 -8 -254 l11 -59 -64 -66 c-94 -98 -113 -149 -85 -229 11 -33
57 -59 86 -47 17 6 17 7 -2 21 -48 35 -55 45 -55 79 0 25 8 44 25 61 24 24 26
24 57 8 18 -9 62 -39 97 -67 35 -28 86 -63 115 -77 40 -21 50 -31 48 -48 -2
-12 1 -22 7 -22 11 0 204 111 303 176 58 37 68 48 79 86 19 73 6 166 -40 268
-23 49 -41 97 -41 105 0 15 70 67 105 79 80 26 121 131 74 189 -39 51 -158 61
-211 17 -32 -26 -19 -32 40 -19 46 11 54 10 98 -12 53 -26 70 -48 61 -73 -15
-38 -153 -8 -278 61 -41 22 -49 31 -47 51 4 36 -15 37 -54 4z m-45 -214 c12
-6 55 -21 96 -32 41 -12 76 -26 78 -32 4 -12 -135 -94 -161 -94 -20 0 -52 65
-62 128 -6 35 -4 42 10 42 10 0 27 -5 39 -12z m22 -283 c50 -87 90 -215 66
-215 -21 0 -146 78 -186 117 -58 55 -58 75 3 113 66 42 85 39 117 -15z"/>
<path d="M1678 6020 c-57 -17 -118 -66 -118 -94 0 -12 23 -5 47 14 39 30 98
43 138 30 84 -28 61 -74 -46 -92 -39 -7 -98 -8 -152 -4 -81 7 -87 10 -93 32
-9 35 -31 29 -53 -13 -11 -21 -63 -92 -116 -158 l-97 -120 4 -70 c4 -72 23
-123 86 -230 l30 -51 -35 -89 c-41 -107 -43 -149 -12 -206 28 -49 67 -68 106
-50 30 14 21 31 -17 31 -56 0 -92 89 -54 131 18 21 30 19 169 -17 50 -13 109
-24 133 -24 36 0 44 -4 52 -25 5 -14 12 -25 14 -25 6 0 162 200 216 277 41 59
43 64 37 116 -8 83 -49 152 -140 238 l-80 77 22 36 c13 20 38 54 57 77 41 50
56 97 43 143 -15 53 -81 84 -141 66z m-48 -337 c0 -14 -113 -153 -124 -153
-21 0 -53 29 -85 77 -42 63 -41 77 7 70 20 -3 60 -2 87 3 68 10 115 11 115 3z
m-40 -284 c57 -47 120 -121 120 -141 0 -14 -103 -9 -161 8 -74 22 -129 51
-129 69 0 25 71 115 90 115 11 0 46 -23 80 -51z"/>
<path d="M8245 4948 c-2 -7 -21 -87 -41 -178 -125 -565 -355 -1100 -687 -1595
-224 -333 -505 -641 -802 -880 -699 -561 -1566 -763 -2443 -570 -769 170
-1472 702 -2007 1520 -322 491 -507 934 -658 1575 l-22 95 -39 6 -38 6 6 -41
c14 -84 58 -271 101 -419 215 -751 610 -1424 1154 -1968 302 -301 559 -488
886 -645 758 -363 1655 -377 2435 -37 989 431 1846 1544 2164 2812 25 100 49
206 52 234 6 50 5 53 -25 75 -23 17 -33 19 -36 10z"/>
<path d="M4902 4621 c-18 -22 -46 -50 -63 -62 l-32 -23 6 37 c5 34 4 37 -20
37 -16 0 -27 7 -30 20 -7 26 -15 25 -44 -6 -13 -15 -48 -44 -78 -66 l-53 -40
28 -23 27 -22 -1 -129 c-1 -80 -7 -151 -17 -187 -8 -32 -15 -59 -15 -61 0 -2
17 -3 38 -3 48 1 139 -39 145 -64 8 -30 21 -23 69 34 106 124 124 162 94 203
-18 25 -29 14 -17 -18 6 -16 5 -34 -4 -55 -13 -30 -15 -32 -47 -22 -18 6 -41
13 -51 16 -31 9 -37 47 -30 178 5 94 9 125 19 125 21 0 41 -40 49 -95 6 -44 9
-47 19 -31 6 11 30 41 54 66 49 54 51 75 17 144 -13 27 -21 54 -19 61 12 30
-16 21 -44 -14z"/>
<path d="M5190 4603 c-41 -31 -100 -67 -130 -81 -49 -23 -52 -26 -33 -35 19
-8 22 -21 28 -108 4 -54 4 -130 0 -169 -6 -58 -11 -72 -29 -82 -19 -10 -16
-13 34 -24 30 -7 77 -22 103 -34 l49 -22 -39 -25 c-51 -34 -143 -124 -143
-140 0 -19 18 -16 30 6 10 19 11 19 77 0 99 -28 151 -25 199 9 58 43 126 111
119 122 -3 5 3 14 14 19 29 16 41 62 31 128 -7 54 -6 61 21 102 31 48 39 117
17 139 -21 21 -26 13 -16 -26 7 -30 6 -47 -6 -77 -15 -36 -17 -37 -30 -19 -14
19 -15 18 -38 -3 -14 -13 -28 -23 -33 -23 -14 0 26 39 48 46 18 6 19 13 14 77
-6 86 4 121 43 162 l31 32 -80 6 c-84 5 -199 47 -186 67 15 24 -26 4 -95 -47z
m116 -118 c28 -11 35 -19 29 -32 -13 -36 -25 -180 -19 -241 l7 -63 -54 20
c-30 12 -54 21 -54 21 -1 0 -1 72 0 161 l0 160 27 -5 c15 -3 43 -12 64 -21z"/>
<path d="M5775 4626 c-22 -18 -71 -54 -110 -81 -38 -26 -71 -49 -73 -50 -2 -2
1 -13 8 -24 18 -34 15 -301 -4 -346 -21 -49 -21 -48 14 -42 38 8 160 -28 182
-54 20 -24 35 -24 42 -1 4 10 31 42 61 70 59 56 74 90 56 128 -17 37 -30 29
-28 -18 2 -37 -1 -43 -20 -46 -25 -4 -143 36 -143 48 0 5 48 53 107 109 124
117 122 101 23 231 -33 43 -60 86 -60 94 0 23 -10 20 -55 -18z"/>
<path d="M6302 4621 c-18 -22 -46 -50 -63 -62 l-32 -23 6 37 c5 34 4 37 -20
37 -16 0 -27 7 -30 20 -7 26 -15 25 -44 -6 -13 -15 -48 -44 -78 -66 l-53 -40
28 -23 27 -22 -1 -129 c-1 -80 -7 -151 -17 -187 -8 -32 -15 -59 -15 -61 0 -2
17 -3 38 -3 48 1 139 -39 145 -64 8 -30 21 -23 69 34 106 124 124 162 94 203
-18 25 -29 14 -17 -18 6 -16 5 -34 -4 -55 -13 -30 -15 -32 -47 -22 -18 6 -41
13 -51 16 -31 9 -37 47 -30 178 5 94 9 125 19 125 21 0 41 -40 49 -95 6 -44 9
-47 19 -31 6 11 30 41 54 66 49 54 51 75 17 144 -13 27 -21 54 -19 61 12 30
-16 21 -44 -14z"/>
<path d="M3602 4617 c-17 -18 -54 -46 -82 -62 -53 -32 -60 -52 -17 -47 38 5
44 -21 38 -166 l-6 -122 -52 -50 c-36 -34 -53 -59 -53 -75 0 -30 16 -33 23 -5
6 22 36 26 68 10 15 -8 19 -21 19 -60 0 -58 -17 -145 -36 -182 -9 -16 -10 -29
-4 -33 11 -7 76 25 138 67 23 16 58 36 77 44 43 18 45 34 4 34 -29 0 -30 2
-27 38 3 34 6 37 36 40 27 3 35 -1 39 -17 7 -27 29 -27 43 -1 6 11 32 48 58
82 65 86 94 158 95 233 1 50 -7 77 -42 158 -25 58 -40 105 -36 116 14 45 -21
29 -95 -43 -43 -42 -81 -76 -85 -76 -4 0 -5 21 -1 46 6 43 5 46 -24 56 -19 6
-30 17 -30 29 0 27 -12 24 -48 -14z m135 -164 c3 -10 25 -61 49 -114 33 -70
44 -108 44 -143 0 -54 8 -52 -92 -25 l-38 10 0 129 c0 70 3 135 6 144 8 21 23
20 31 -1z"/>
<path d="M4062 4582 c-40 -37 -72 -70 -72 -74 0 -4 13 -5 30 -2 26 6 30 3 36
-22 4 -15 4 -100 1 -188 l-6 -161 -31 -27 c-16 -15 -30 -32 -30 -37 0 -6 23
-7 55 -4 60 6 135 -18 135 -44 0 -23 21 -14 72 32 28 25 58 45 67 45 26 0 111
-57 111 -75 0 -8 3 -15 8 -15 11 0 132 137 132 149 0 14 -17 14 -25 1 -9 -14
-21 -12 -39 6 -13 13 -16 43 -16 168 0 132 3 157 20 191 11 22 20 40 20 42 0
1 -23 12 -50 24 -28 12 -49 27 -48 33 7 30 -23 15 -88 -44 -75 -68 -88 -86
-54 -77 34 9 39 -20 33 -191 -7 -179 -4 -174 -73 -151 l-33 12 8 176 c4 97 8
191 9 210 1 31 -2 35 -31 43 -18 5 -37 17 -43 28 -6 11 -14 20 -18 20 -4 -1
-40 -31 -80 -68z"/>
<path d="M4040 3671 c0 -20 -61 -214 -65 -209 -2 2 9 45 24 96 16 51 26 92 22
92 -4 0 -24 -53 -45 -117 -21 -65 -43 -123 -48 -130 -6 -8 -48 -14 -116 -16
-105 -3 -105 -3 16 -3 67 1 122 -2 122 -6 0 -5 -66 -8 -147 -8 -143 0 -203
-10 -151 -24 12 -3 39 -20 58 -37 l35 -31 -35 23 -35 23 25 -28 c14 -16 55
-51 93 -78 37 -28 67 -51 67 -52 0 0 -7 -25 -14 -53 -8 -29 -11 -53 -7 -53 4
0 13 23 20 51 7 27 15 48 17 46 5 -5 -54 -224 -68 -249 -12 -25 -1 -22 38 7
34 26 50 32 39 15 -4 -6 32 15 79 46 l86 56 65 -36 c36 -20 65 -34 65 -32 0 2
-29 23 -65 46 l-64 42 -72 -52 c-39 -28 -73 -50 -75 -47 -2 2 14 16 37 31 22
15 38 30 35 33 -2 3 -19 -5 -35 -17 -17 -12 -31 -19 -31 -17 0 7 127 97 137
97 4 0 -10 -12 -30 -26 -21 -14 -36 -28 -33 -31 3 -3 19 5 36 17 l31 22 70
-46 c38 -25 69 -51 69 -58 0 -6 3 -8 7 -5 3 4 28 -9 55 -28 52 -38 55 -34 33
39 -8 27 -12 58 -10 70 3 11 -1 44 -10 71 -8 28 -15 57 -15 65 0 8 25 32 54
54 30 21 69 54 88 74 29 31 25 29 -30 -13 -35 -27 -79 -63 -99 -80 l-36 -31
21 -64 c12 -35 22 -69 21 -74 -1 -14 -49 124 -49 139 0 15 195 166 204 158 3
-3 15 2 26 12 25 23 12 34 -40 36 -25 1 -29 3 -15 8 11 3 -36 8 -103 11 l-124
5 -45 125 c-47 131 -50 137 -58 128 -3 -3 17 -67 44 -143 27 -75 45 -133 40
-128 -5 5 -32 74 -59 154 -28 79 -50 138 -50 130z m157 -343 l94 -3 -70 -50
c-39 -27 -71 -55 -71 -62 0 -6 13 -47 28 -91 l28 -80 -69 49 c-39 27 -76 49
-82 49 -17 0 -139 -90 -132 -97 3 -3 31 13 63 36 31 23 61 41 66 41 13 0 160
-101 155 -106 -2 -3 -37 18 -77 45 -83 57 -77 58 -172 -16 -32 -24 -58 -40
-58 -36 0 5 5 14 12 21 9 9 9 12 1 12 -8 0 -3 26 13 72 13 39 24 81 24 92 0
14 -22 36 -68 69 l-67 47 81 0 c53 0 85 4 92 13 6 7 21 47 33 90 l23 78 30
-85 29 -85 94 -3z"/>
<path d="M4925 3650 c-6 -28 -9 -31 -14 -16 -5 12 -19 -19 -46 -100 -21 -66
-43 -124 -48 -131 -6 -8 -47 -14 -115 -16 -105 -3 -105 -3 16 -3 67 1 122 -2
122 -6 0 -5 -67 -8 -150 -8 -84 0 -150 -4 -150 -9 0 -5 47 -44 105 -86 58 -42
105 -79 105 -82 0 -3 -6 -1 -12 4 -51 40 -168 123 -174 123 -14 0 21 -32 102
-91 90 -66 89 -64 62 -138 -5 -13 -6 -26 -4 -29 3 -3 8 1 11 9 2 8 11 32 19
54 28 77 16 19 -22 -107 -37 -123 -40 -146 -12 -113 7 9 18 14 24 12 6 -2 52
23 103 55 91 59 92 59 122 44 36 -19 45 -20 35 -4 -4 7 -3 8 5 4 6 -4 9 -11 6
-16 -6 -10 54 -46 68 -42 5 1 31 -14 58 -34 31 -23 49 -31 49 -22 0 8 -14 54
-30 103 -17 49 -29 94 -27 99 2 5 9 -10 16 -34 7 -23 15 -40 18 -37 4 5 -17
89 -33 131 -3 9 16 29 58 59 35 25 79 63 98 84 37 40 36 39 -80 -53 -80 -64
-100 -78 -100 -70 0 9 201 160 217 162 43 7 23 34 -25 35 -30 0 -33 2 -17 9
13 5 -26 9 -105 9 l-125 1 -33 98 c-41 118 -61 167 -67 160 -3 -2 11 -51 30
-108 19 -57 33 -105 31 -107 -4 -4 -73 191 -79 222 -2 14 -6 10 -12 -15z m67
-316 c2 -1 52 -4 111 -5 59 -1 107 -3 107 -4 0 -7 -143 -116 -146 -112 -2 2
23 25 56 52 34 26 59 50 56 53 -9 9 -135 -92 -136 -109 0 -8 11 -49 25 -89 14
-40 25 -75 25 -77 0 -2 -27 17 -60 41 -87 64 -92 65 -158 14 -31 -24 -61 -46
-68 -50 -7 -5 -2 23 12 67 13 42 24 82 24 91 0 8 -29 36 -65 62 l-65 47 81 3
80 3 19 42 c10 23 24 64 31 91 l12 49 28 -83 c16 -45 30 -84 31 -86z"/>
<path d="M5815 3657 c-5 -19 -10 -25 -15 -17 -8 13 -20 -16 -67 -160 l-28 -85
-115 -5 -115 -4 125 -6 125 -6 -152 -2 c-88 -1 -154 -6 -158 -12 -3 -5 -1 -10
5 -10 11 0 150 -98 150 -107 0 -2 -21 11 -47 30 -27 18 -55 38 -63 42 -36 20
23 -33 95 -85 82 -60 81 -58 60 -160 -3 -14 4 -2 15 25 17 43 19 45 14 15 -3
-19 -19 -75 -35 -125 -15 -49 -27 -91 -25 -92 2 -2 14 6 29 17 27 22 42 26 32
10 -3 -6 37 17 89 51 l96 61 70 -41 c39 -22 68 -35 65 -28 -4 6 1 3 9 -7 9
-11 16 -16 16 -12 0 4 20 -7 45 -24 25 -17 45 -27 45 -23 0 4 -9 37 -20 73
-23 76 -23 73 -10 65 12 -7 6 24 -17 89 -7 21 -13 42 -13 46 0 5 24 25 53 46
28 21 78 63 110 93 61 58 61 70 2 71 -23 0 -27 3 -15 10 10 7 -24 10 -107 10
-118 0 -122 1 -128 23 -13 46 -79 222 -87 232 -16 18 -7 -16 32 -126 22 -62
38 -114 36 -116 -2 -2 -16 30 -31 72 -20 54 -31 72 -37 63 -7 -9 -8 -7 -4 7 3
11 -1 45 -8 75 -13 51 -14 53 -21 27z m65 -321 c3 -3 54 -6 113 -7 59 -1 107
-2 107 -4 0 -1 -33 -28 -74 -59 -49 -38 -73 -62 -69 -72 3 -8 3 -14 0 -14 -3
0 -7 7 -11 15 -3 10 16 32 59 67 36 28 63 53 61 56 -5 4 -75 -43 -118 -80
l-27 -23 30 -85 c16 -47 29 -86 29 -87 0 -2 -31 20 -68 47 -38 28 -75 50 -83
50 -8 0 -43 -23 -78 -50 -36 -27 -66 -49 -67 -47 -2 2 8 38 21 80 14 43 25 82
25 87 0 5 -32 32 -71 59 l-71 50 89 3 88 3 29 84 30 85 25 -76 c14 -42 28 -79
31 -82z"/>
<path d="M1867 3338 c-28 -14 -37 -24 -33 -36 8 -24 -160 -114 -173 -94 -6 11
-15 10 -44 -4 -21 -10 -37 -21 -37 -26 0 -13 128 -248 151 -276 30 -39 57 -54
96 -54 47 0 83 35 85 84 l1 36 33 -15 c57 -28 114 13 114 81 0 22 -54 138
-122 262 l-33 62 -38 -20z"/>
<path d="M7822 3160 c-45 -83 -82 -155 -82 -161 0 -5 16 -17 37 -27 28 -13 37
-14 41 -4 6 20 180 -77 175 -97 -3 -11 8 -22 33 -34 20 -10 38 -17 39 -15 10
11 167 310 164 312 -2 1 -25 14 -51 28 l-47 26 -25 -43 c-19 -35 -21 -45 -10
-49 12 -5 11 -13 -6 -46 l-21 -40 -30 15 -30 16 20 33 20 32 -28 17 c-38 22
-38 22 -56 -13 -18 -34 -23 -36 -51 -16 -19 14 -19 15 0 50 13 25 24 35 36 31
11 -4 22 7 37 38 l21 44 -46 24 c-26 13 -49 25 -52 26 -3 2 -42 -65 -88 -147z"/>
<path d="M2090 2918 c-14 -11 -24 -27 -22 -35 2 -8 -9 -46 -24 -84 -29 -73
-68 -117 -88 -100 -13 11 -76 -23 -76 -40 0 -5 24 -45 53 -88 l52 -78 38 25
c27 18 34 28 27 37 -8 9 -4 17 14 29 29 18 190 23 201 6 6 -10 23 -4 59 23 19
14 19 16 -19 75 l-39 60 -33 -22 c-18 -11 -33 -27 -33 -33 0 -8 -15 -13 -40
-13 -22 0 -40 2 -40 5 0 18 32 65 41 60 5 -4 25 3 45 15 35 22 35 22 18 49
-68 104 -88 131 -98 131 -6 -1 -22 -10 -36 -22z"/>
<path d="M7655 2859 c-29 -26 -195 -250 -195 -264 0 -2 16 -13 36 -26 28 -17
38 -19 44 -9 11 18 166 -91 162 -113 -2 -14 46 -57 65 -57 8 0 117 160 111
164 -54 39 -66 44 -75 35 -8 -8 -19 -6 -37 6 -21 14 -24 21 -15 36 11 21 44
23 136 10 l52 -7 39 56 40 56 -35 22 c-25 17 -38 20 -47 13 -8 -7 -32 -8 -58
-5 -42 6 -46 9 -57 44 -22 75 -103 94 -166 39z"/>
<path d="M4530 2520 c0 -16 5 -30 10 -30 6 0 10 -11 10 -25 0 -14 -4 -25 -10
-25 -5 0 -10 -11 -10 -25 0 -24 3 -25 60 -25 57 0 60 1 60 25 0 14 -4 25 -10
25 -5 0 -10 11 -10 25 0 18 5 25 20 25 17 0 20 -7 20 -50 l0 -50 55 0 c52 0
55 1 55 25 0 14 -4 25 -10 25 -5 0 -10 11 -10 25 0 18 5 25 20 25 17 0 20 -7
20 -50 l0 -50 55 0 c52 0 55 1 55 25 0 15 -6 25 -14 25 -11 0 -16 14 -18 46
-4 61 -21 73 -82 56 -33 -9 -52 -9 -69 -1 -17 7 -35 8 -60 1 -22 -6 -37 -7
-37 -1 0 5 -22 9 -50 9 -49 0 -50 -1 -50 -30z"/>
<path d="M4923 2534 c-3 -9 -1 -25 5 -35 15 -23 16 -59 2 -59 -5 0 -10 -11
-10 -25 0 -24 3 -25 60 -25 57 0 60 1 60 25 0 14 -4 25 -10 25 -5 0 -10 25
-10 55 l0 55 -45 0 c-33 0 -47 -5 -52 -16z"/>
<path d="M5060 2520 c0 -16 5 -30 10 -30 6 0 10 -11 10 -25 0 -14 -4 -25 -10
-25 -5 0 -10 -11 -10 -25 0 -24 2 -25 65 -25 63 0 65 1 65 25 0 16 -6 25 -15
25 -9 0 -15 9 -15 25 0 18 5 25 20 25 17 0 20 -7 20 -50 l0 -50 55 0 c52 0 55
1 55 25 0 14 -4 25 -10 25 -5 0 -10 15 -10 33 0 65 -41 91 -104 67 -17 -6 -26
-6 -26 0 0 6 -22 10 -50 10 -49 0 -50 -1 -50 -30z"/>
<path d="M7291 2404 l-83 -95 28 -30 c17 -18 34 -27 45 -24 13 4 28 -14 64
-80 26 -48 44 -92 42 -99 -3 -8 8 -27 24 -42 l30 -29 49 55 49 55 -31 30 c-20
20 -32 26 -35 18 -7 -19 -19 -16 -30 10 -9 19 -6 28 22 58 27 30 36 34 52 25
10 -6 17 -18 16 -26 -2 -9 8 -27 22 -40 l26 -25 35 40 c19 22 48 56 64 76 l30
37 -34 25 c-18 15 -37 22 -42 17 -5 -4 -53 8 -107 28 -72 27 -96 40 -92 51 6
15 -31 61 -50 61 -6 0 -48 -43 -94 -96z"/>
<path d="M2437 2432 c-16 -17 -25 -35 -22 -44 3 -8 -21 -72 -55 -143 -33 -70
-60 -135 -60 -144 0 -19 60 -81 77 -81 6 0 70 23 142 51 74 29 138 48 149 45
12 -4 28 4 46 23 l29 30 -51 53 -51 53 -30 -29 c-22 -21 -28 -33 -21 -41 7 -9
-10 -21 -65 -44 -41 -17 -77 -31 -80 -31 -4 0 11 32 32 70 24 44 43 68 51 65
7 -3 28 7 47 22 l33 26 -66 74 c-37 40 -69 73 -72 73 -4 0 -18 -13 -33 -28z"/>
<path d="M7088 2181 l-53 -49 29 -30 c15 -17 34 -28 40 -26 6 2 28 -29 49 -72
l38 -76 -58 33 c-92 52 -93 53 -88 69 3 9 -7 28 -23 43 l-28 27 -59 -53 -58
-52 28 -33 c20 -23 31 -30 38 -23 8 8 20 -12 42 -66 18 -43 31 -79 29 -81 -1
-2 -32 16 -68 40 -45 30 -64 48 -61 59 5 15 -29 69 -43 69 -8 0 -136 -109
-140 -120 -6 -15 50 -71 62 -62 7 6 58 -16 144 -64 l134 -73 44 36 c24 21 44
39 44 40 0 2 -11 31 -25 65 -14 34 -25 65 -25 69 0 5 27 -7 59 -26 33 -19 62
-35 66 -35 13 0 85 64 85 76 0 7 -23 72 -50 144 -28 73 -49 139 -46 148 4 15
-34 72 -48 72 -2 0 -29 -22 -58 -49z"/>
<path d="M3752 2117 c-46 -46 -52 -58 -47 -80 7 -25 11 -27 56 -27 48 0 65
-12 34 -24 -8 -3 -15 -15 -15 -26 0 -18 6 -20 60 -20 57 0 60 1 60 24 0 13 -6
27 -12 30 -10 5 -10 7 0 12 14 7 16 54 2 54 -5 0 -10 25 -10 55 l0 55 -38 0
c-32 0 -45 -8 -90 -53z"/>
<path d="M3969 2141 c-25 -25 -29 -37 -29 -84 0 -75 33 -117 91 -117 22 0 51
7 64 16 43 28 56 129 22 175 -35 47 -105 52 -148 10z"/>
<path d="M4199 2141 c-25 -25 -29 -37 -29 -84 0 -45 5 -61 26 -86 21 -26 33
-31 69 -31 36 0 48 5 69 31 21 25 26 41 26 86 0 47 -4 59 -29 84 -22 21 -39
29 -66 29 -27 0 -44 -8 -66 -29z"/>
<path d="M4429 2141 c-25 -25 -29 -37 -29 -84 0 -45 5 -61 26 -86 21 -26 33
-31 69 -31 36 0 48 5 69 31 21 25 26 41 26 86 0 47 -4 59 -29 84 -22 21 -39
29 -66 29 -27 0 -44 -8 -66 -29z"/>
<path d="M4700 2075 c0 -14 5 -25 10 -25 6 0 10 -13 10 -30 0 -16 -4 -30 -10
-30 -5 0 -10 -11 -10 -25 0 -24 2 -25 65 -25 62 0 65 1 65 24 0 13 -6 26 -12
29 -19 6 9 37 33 37 15 0 19 7 19 35 0 40 -20 47 -52 18 -17 -15 -18 -15 -18
0 0 14 -10 17 -50 17 -47 0 -50 -2 -50 -25z"/>
<path d="M4916 2079 c-28 -22 -35 -73 -16 -109 23 -44 139 -50 175 -10 17 18
16 19 -10 26 -14 4 -36 2 -48 -3 -27 -12 -47 -6 -47 13 0 10 15 14 60 14 54 0
60 2 60 20 0 12 -11 32 -25 45 -32 33 -110 35 -149 4z"/>
<path d="M5144 2075 c-31 -31 -32 -87 -4 -115 15 -15 33 -20 70 -20 28 0 50
-4 50 -10 0 -5 -4 -10 -10 -10 -5 0 -10 -11 -10 -25 0 -24 3 -25 60 -25 57 0
60 1 60 25 0 14 -4 25 -10 25 -6 0 -10 28 -10 65 0 37 4 65 10 65 6 0 10 11
10 25 0 24 -1 24 -96 24 -88 0 -98 -2 -120 -24z"/>
<path d="M5491 2086 c-7 -8 -11 -27 -9 -43 2 -24 10 -30 50 -44 55 -18 70 -29
40 -29 -11 0 -24 5 -27 10 -3 6 -19 10 -36 10 -24 0 -29 -4 -29 -25 0 -24 2
-25 74 -25 54 0 79 4 90 16 34 33 10 69 -59 89 l-50 14 58 -6 c56 -5 57 -5 57
21 0 26 -1 26 -74 26 -52 0 -77 -4 -85 -14z"/>
<path d="M5705 2068 c-46 -55 -17 -119 61 -134 41 -8 109 15 109 36 0 19 -51
26 -70 10 -16 -14 -35 -5 -35 16 0 11 14 14 60 14 54 0 60 2 60 20 0 12 -11
32 -25 45 -20 21 -34 25 -79 25 -49 0 -57 -3 -81 -32z"/>
<path d="M5946 2079 c-20 -16 -26 -29 -26 -60 0 -47 24 -75 74 -85 44 -8 76 0
107 26 21 17 22 21 9 30 -19 13 -60 13 -60 0 0 -17 -37 -11 -44 6 -10 25 3 54
24 54 10 0 22 -4 25 -10 3 -5 17 -10 31 -10 21 0 24 5 24 35 l0 35 -69 0 c-54
0 -74 -4 -95 -21z"/>
<path d="M2797 2062 c-17 -18 -25 -35 -22 -44 5 -12 -15 -28 -80 -63 -47 -26
-92 -45 -99 -42 -8 3 -27 -8 -42 -24 l-29 -30 55 -49 55 -49 28 30 c21 22 25
34 18 43 -8 10 -5 16 12 23 19 9 28 6 58 -22 30 -27 34 -36 25 -52 -6 -10 -18
-17 -26 -16 -9 2 -27 -8 -40 -23 l-25 -26 26 -21 c15 -12 49 -41 77 -64 l50
-43 25 34 c15 18 22 37 17 42 -4 5 8 53 28 107 27 72 40 96 51 92 15 -6 61 31
61 50 0 9 -182 175 -192 175 -3 0 -16 -13 -31 -28z"/>
<path d="M3095 1803 c-16 -25 -21 -39 -14 -44 14 -8 14 -10 -41 -98 -33 -53
-50 -71 -62 -67 -12 3 -24 -7 -38 -29 -11 -18 -20 -35 -20 -37 0 -6 153 -108
162 -108 3 0 15 14 26 32 15 23 18 36 11 45 -7 8 -5 20 6 37 14 22 20 24 37
15 19 -10 20 -17 14 -100 l-7 -88 56 -37 c30 -20 57 -35 58 -33 32 41 46 69
37 74 -5 3 -10 31 -10 61 0 53 1 54 29 54 37 0 81 49 81 90 0 64 -30 95 -212
213 l-88 56 -25 -36z"/>
<path d="M6515 1715 c-82 -53 -149 -99 -149 -103 1 -4 19 -35 40 -69 l38 -62
28 21 c28 19 28 21 12 45 -14 23 -15 27 0 41 8 9 17 14 20 11 2 -2 27 -40 56
-84 42 -66 49 -82 37 -89 -13 -8 -12 -14 7 -43 11 -18 25 -33 29 -33 15 0 167
102 167 112 0 5 -9 23 -21 39 -16 22 -24 27 -34 19 -9 -8 -25 9 -64 71 -28 44
-51 84 -51 89 0 4 8 11 17 14 16 7 37 -10 46 -37 2 -6 16 -3 34 8 l30 18 -39
63 c-22 35 -43 64 -47 64 -3 0 -73 -43 -156 -95z"/>
<path d="M3494 1558 c-15 -33 -15 -41 -4 -48 21 -13 -58 -182 -83 -176 -13 3
-22 -6 -32 -31 -8 -20 -15 -39 -15 -43 0 -7 113 -60 129 -60 4 0 15 16 24 35
14 30 15 35 1 43 -12 7 -10 17 14 72 l29 64 11 -65 c6 -35 17 -97 23 -137 l12
-73 57 -29 56 -28 61 131 c44 96 65 131 76 129 15 -2 47 43 47 65 0 9 -103 63
-120 63 -6 0 -18 -16 -27 -36 -14 -28 -15 -37 -4 -43 10 -7 7 -19 -13 -57 -14
-27 -25 -44 -26 -39 -1 24 -37 226 -41 228 -2 2 -38 20 -80 39 l-77 36 -18
-40z"/>
<path d="M6155 1514 c-88 -42 -161 -77 -163 -79 -2 -1 5 -21 14 -44 14 -35 18
-39 35 -30 17 9 24 1 61 -77 39 -80 40 -87 24 -99 -16 -12 -16 -15 0 -49 10
-20 21 -36 25 -36 11 0 199 91 199 96 0 5 -30 66 -35 72 -2 2 -12 -1 -22 -7
-16 -8 -21 -5 -30 20 -11 27 -9 31 13 41 28 13 28 14 13 56 -11 31 -11 31 -41
16 -16 -8 -31 -14 -33 -12 -7 9 -26 50 -23 52 2 1 20 9 41 19 33 15 38 15 43
2 5 -13 10 -13 42 1 21 8 41 19 45 23 7 7 -37 111 -46 111 -1 0 -74 -34 -162
-76z"/>
<path d="M3922 1353 c-9 -30 -9 -38 4 -48 13 -9 12 -21 -13 -100 -23 -71 -33
-90 -47 -90 -13 0 -23 -12 -32 -37 -7 -21 -10 -39 -6 -42 11 -6 179 -56 190
-56 5 0 13 11 16 24 3 13 9 31 12 40 4 11 1 16 -10 16 -21 0 -21 2 12 100 23
67 33 86 49 88 15 2 24 15 31 42 l10 39 -92 31 c-50 16 -96 30 -102 30 -6 0
-16 -17 -22 -37z"/>
<path d="M5738 1366 c-56 -20 -85 -42 -115 -87 -56 -85 -25 -216 65 -267 72
-40 201 -23 265 36 34 31 57 89 57 145 0 135 -136 222 -272 173z m68 -84 c17
-11 42 -65 54 -116 13 -60 0 -89 -38 -84 -50 6 -103 156 -67 191 18 18 33 21
51 9z"/>
<path d="M4214 1266 c-34 -34 -36 -40 -31 -83 5 -49 9 -53 106 -135 36 -30 37
-51 2 -56 -27 -4 -51 14 -51 38 0 16 -35 30 -76 30 -11 0 -28 -61 -29 -105 0
-13 68 -26 76 -14 3 6 20 2 40 -10 60 -35 120 -32 160 8 22 23 29 39 29 70 0
58 -16 85 -82 137 -59 46 -72 75 -36 82 17 3 52 -25 59 -47 2 -6 21 -14 41
-17 39 -7 39 -6 53 63 6 31 5 32 -31 39 -25 5 -39 3 -42 -4 -2 -7 -14 -4 -32
9 -15 12 -49 24 -74 26 -42 5 -48 3 -82 -31z"/>
<path d="M5423 1273 c-20 -3 -33 -10 -33 -18 0 -11 -6 -12 -26 -5 -76 29 -164
-26 -164 -103 0 -13 10 -39 23 -58 18 -27 38 -39 97 -60 57 -20 76 -31 78 -47
2 -13 -4 -22 -17 -27 -22 -7 -61 10 -61 25 0 12 -60 13 -77 2 -9 -6 -11 -24
-6 -60 l6 -53 41 3 c27 2 40 7 38 16 -1 9 5 10 25 5 83 -23 166 17 173 83 9
80 -24 118 -128 152 -56 18 -72 27 -72 42 0 29 38 36 64 11 31 -29 96 -19 96
14 0 34 -12 85 -19 83 -3 0 -21 -3 -38 -5z"/>
<path d="M4550 1205 c0 -29 4 -45 13 -45 9 0 11 -23 9 -92 -3 -76 -7 -96 -23
-111 -10 -10 -19 -31 -19 -47 0 -35 10 -38 123 -42 l77 -3 0 43 c0 23 -4 42
-10 42 -5 0 -10 16 -10 35 0 30 3 35 23 35 49 0 67 -11 67 -41 0 -19 -5 -29
-15 -29 -11 0 -15 -12 -15 -44 l0 -43 92 -6 c50 -3 95 -4 100 -1 4 3 8 23 8
45 0 29 -4 39 -16 39 -14 0 -16 8 -10 53 3 28 6 73 6 100 0 33 4 47 14 47 9 0
15 15 18 43 3 23 4 43 4 43 -1 1 -45 4 -98 6 l-98 4 0 -43 c0 -24 5 -43 10
-43 6 0 10 -13 10 -30 0 -29 -2 -30 -45 -30 -43 0 -45 1 -45 29 0 16 5 31 11
33 5 2 13 22 16 44 l5 41 -77 6 c-131 12 -125 14 -125 -38z"/>
</g>
</svg>
